<?xml version="1.0" encoding="UTF-8"?>
<svg version="1.1" viewBox="0 0 1925 2048" width="2744" height="2918" xmlns="http://www.w3.org/2000/svg">
<path transform="translate(0)" d="m0 0h1925v2048h-1925z" fill="#9265FA"/>
<path transform="translate(878,765)" d="m0 0h55l1 449 2 18 6 25 6 16 10 18 8 10 6 7 14 11 12 7 17 6 13 3 9 1h21l19-3 18-6 15-8 10-8 8-7 11-14 11-21 6-18 4-20 2-21 1-42v-138l2-20 4-18 6-16 6-11 9-11 10-9 14-8 15-5 18-3h18l19 3 14 5 13 7 12 11 7 8 8 14 7 21 3 16 1 10 1 106v62l-2 51-3 26-5 25-8 28-10 25-11 23-12 20-12 17-13 16-12 13-16 16-11 9-17 13-17 11-18 10-19 9-24 9-21 6-25 5-29 3h-35l-29-3-26-5-24-7-19-7-24-11-18-10-19-13-13-10-14-12-22-22-9-11-12-16-12-19-12-22-10-23-9-27-6-26-4-26-2-27-1-25-1-46v-79l2-170 82-1 12-3 12-6 9-7 9-12 5-11 2-8z" fill="#FEFEFE"/>
<path transform="translate(447,738)" d="m0 0h397v129l-4 6-6 3h-376l-7-3-3-4-1-4z" fill="#FEFEFE"/>
<path transform="translate(1233,521)" d="m0 0h19l19 3 15 5 19 10 13 10 12 12 11 16 8 16 5 17 2 12v25l-4 20-6 16-8 14-10 13-12 12-16 11-17 8-17 5-14 2h-19l-18-3-15-5-16-8-14-10-9-8-9-11-9-14-7-15-4-13-2-11-1-16 2-21 4-15 5-12 7-13 9-12 15-15 13-9 16-8 15-5z" fill="#FEFEFE"/>
<path transform="translate(458,651)" d="m0 0h376l6 3 4 6v43h-397v-41l3-7z" fill="#FEFEFE"/>
</svg>
